<svg width="204" height="138.72" id="e8992900-c61f-4645-8bb2-4094348f64ae" data-name="ETSSquare" xmlns="http://www.w3.org/2000/svg" viewBox="0 0 236.82 169.44"><defs><style>.\33 68ced57-ec8f-410c-bb31-a5f563f6c761,.\35 c75e2a3-16cc-4193-bdb6-66677eda7879,.c32c7fed-2621-4738-8059-f50c7350962c{fill:#231f20;}.\32 27f4f90-5c67-4981-81ec-f53caa48e0d4{fill:#27aae1;}.\35 c75e2a3-16cc-4193-bdb6-66677eda7879{font-size:18.27px;letter-spacing:0.01em;}.\33 68ced57-ec8f-410c-bb31-a5f563f6c761,.\35 c75e2a3-16cc-4193-bdb6-66677eda7879{font-family:HelveticaNeueLTStd-Lt, Helvetica Neue LT Std;}.\33 68ced57-ec8f-410c-bb31-a5f563f6c761{font-size:20.62px;letter-spacing:0.01em;}.bbe2aa1e-f5a5-4d72-9adf-ca3fa34a2a0f{letter-spacing:0.02em;}</style></defs><title>Artboard 2</title><polygon class="c32c7fed-2621-4738-8059-f50c7350962c" points="236.82 0 236.82 123.09 132.14 123.09 132.14 122.14 132.14 105.09 218.82 105.09 218.82 18.41 132.14 18.41 132.14 0 236.82 0"/><polygon class="227f4f90-5c67-4981-81ec-f53caa48e0d4" points="132.14 122.14 132.14 123.09 110.39 123.09 110.39 69.81 54.5 69.81 54.5 69.8 20.5 69.8 20.5 103.03 86.14 103.03 86.14 122.14 0 122.14 0 0.41 86.14 0.41 86.14 20.69 20.5 20.69 20.5 49 79.49 49 79.49 49.02 110.39 49.02 110.39 0 132.14 0 132.14 18.41 132.14 105.09 132.14 122.14"/><path class="c32c7fed-2621-4738-8059-f50c7350962c" d="M163.79,71.67c.11,6.93,5.93,9.73,12.19,9.73,4.59,0,10.4-1.79,10.4-7.38,0-4.81-6.6-6.49-18-8.95-9.17-2-18.34-5.26-18.34-15.43,0-14.76,12.75-18.57,25.16-18.57,12.64,0,24.27,4.25,25.5,18.45H185.6c-.45-6.15-5.14-7.83-10.85-7.83-3.58,0-8.84.67-8.84,5.37,0,5.7,8.95,6.49,18,8.61,9.28,2.12,18.34,5.48,18.34,16.22,0,15.21-13.2,20.13-26.39,20.13-13.42,0-26.5-5-27.18-20.35Z"/><text class="5c75e2a3-16cc-4193-bdb6-66677eda7879" transform="translate(0 147.71)">ENTERPRISE TECHNOLOGY</text><text class="368ced57-ec8f-410c-bb31-a5f563f6c761" transform="translate(0 169.44)">SOLUTIONS &amp; SERVICES</text></svg>
